<?xml version='1.0' encoding='utf-8'?>
<svg xmlns:xlink="http://www.w3.org/1999/xlink" xmlns="http://www.w3.org/2000/svg" id="chart-15130387-ad29-4e86-b0a9-1de0030d0d59" class="pygal-chart" viewBox="0 0 1500 1000"><!--Generated with pygal 2.0.7 (lxml) ©Kozea 2011-2015 on 2015-11-03--><!--http://pygal.org--><!--http://github.com/Kozea/pygal--><defs><style type="text/css">#chart-15130387-ad29-4e86-b0a9-1de0030d0d59{-webkit-user-select:none;-webkit-font-smoothing:antialiased;font-family:Consolas,"Liberation Mono",Menlo,Courier,monospace}#chart-15130387-ad29-4e86-b0a9-1de0030d0d59 .title{font-family:Consolas,"Liberation Mono",Menlo,Courier,monospace;font-size:16px}#chart-15130387-ad29-4e86-b0a9-1de0030d0d59 .legends .legend text{font-family:Consolas,"Liberation Mono",Menlo,Courier,monospace;font-size:14px}#chart-15130387-ad29-4e86-b0a9-1de0030d0d59 .axis text{font-family:Consolas,"Liberation Mono",Menlo,Courier,monospace;font-size:10px}#chart-15130387-ad29-4e86-b0a9-1de0030d0d59 .axis text.major{font-family:Consolas,"Liberation Mono",Menlo,Courier,monospace;font-size:10px}#chart-15130387-ad29-4e86-b0a9-1de0030d0d59 .text-overlay text.value{font-family:Consolas,"Liberation Mono",Menlo,Courier,monospace;font-size:16px}#chart-15130387-ad29-4e86-b0a9-1de0030d0d59 .text-overlay text.label{font-family:Consolas,"Liberation Mono",Menlo,Courier,monospace;font-size:10px}#chart-15130387-ad29-4e86-b0a9-1de0030d0d59 .tooltip{font-family:Consolas,"Liberation Mono",Menlo,Courier,monospace;font-size:14px}#chart-15130387-ad29-4e86-b0a9-1de0030d0d59 text.no_data{font-family:Consolas,"Liberation Mono",Menlo,Courier,monospace;font-size:64px}
#chart-15130387-ad29-4e86-b0a9-1de0030d0d59{background-color:rgba(249,249,249,1)}#chart-15130387-ad29-4e86-b0a9-1de0030d0d59 path,#chart-15130387-ad29-4e86-b0a9-1de0030d0d59 line,#chart-15130387-ad29-4e86-b0a9-1de0030d0d59 rect,#chart-15130387-ad29-4e86-b0a9-1de0030d0d59 circle{-webkit-transition:150ms;-moz-transition:150ms;transition:150ms}#chart-15130387-ad29-4e86-b0a9-1de0030d0d59 .graph &gt; .background{fill:rgba(249,249,249,1)}#chart-15130387-ad29-4e86-b0a9-1de0030d0d59 .plot &gt; .background{fill:rgba(255,255,255,1)}#chart-15130387-ad29-4e86-b0a9-1de0030d0d59 .graph{fill:rgba(0,0,0,.87)}#chart-15130387-ad29-4e86-b0a9-1de0030d0d59 text.no_data{fill:rgba(0,0,0,1)}#chart-15130387-ad29-4e86-b0a9-1de0030d0d59 .title{fill:rgba(0,0,0,1)}#chart-15130387-ad29-4e86-b0a9-1de0030d0d59 .legends .legend text{fill:rgba(0,0,0,.87)}#chart-15130387-ad29-4e86-b0a9-1de0030d0d59 .legends .legend:hover text{fill:rgba(0,0,0,1)}#chart-15130387-ad29-4e86-b0a9-1de0030d0d59 .axis .line{stroke:rgba(0,0,0,1)}#chart-15130387-ad29-4e86-b0a9-1de0030d0d59 .axis .guide.line{stroke:rgba(0,0,0,.54)}#chart-15130387-ad29-4e86-b0a9-1de0030d0d59 .axis .major.line{stroke:rgba(0,0,0,.87)}#chart-15130387-ad29-4e86-b0a9-1de0030d0d59 .axis text.major{fill:rgba(0,0,0,1)}#chart-15130387-ad29-4e86-b0a9-1de0030d0d59 .axis.y .guides:hover .guide.line,#chart-15130387-ad29-4e86-b0a9-1de0030d0d59 .line-graph .axis.x .guides:hover .guide.line,#chart-15130387-ad29-4e86-b0a9-1de0030d0d59 .stackedline-graph .axis.x .guides:hover .guide.line,#chart-15130387-ad29-4e86-b0a9-1de0030d0d59 .xy-graph .axis.x .guides:hover .guide.line{stroke:rgba(0,0,0,1)}#chart-15130387-ad29-4e86-b0a9-1de0030d0d59 .axis .guides:hover text{fill:rgba(0,0,0,1)}#chart-15130387-ad29-4e86-b0a9-1de0030d0d59 .reactive{fill-opacity:.7}#chart-15130387-ad29-4e86-b0a9-1de0030d0d59 .reactive.active,#chart-15130387-ad29-4e86-b0a9-1de0030d0d59 .active .reactive{fill-opacity:.8;stroke-width:4}#chart-15130387-ad29-4e86-b0a9-1de0030d0d59 .series text{fill:rgba(0,0,0,1)}#chart-15130387-ad29-4e86-b0a9-1de0030d0d59 .tooltip rect{fill:rgba(255,255,255,1);stroke:rgba(0,0,0,1);-webkit-transition:opacity 150ms;-moz-transition:opacity 150ms;transition:opacity 150ms}#chart-15130387-ad29-4e86-b0a9-1de0030d0d59 .tooltip .label{fill:rgba(0,0,0,.87)}#chart-15130387-ad29-4e86-b0a9-1de0030d0d59 .tooltip .label{fill:rgba(0,0,0,.87)}#chart-15130387-ad29-4e86-b0a9-1de0030d0d59 .tooltip .legend{font-size:.8em;fill:rgba(0,0,0,.54)}#chart-15130387-ad29-4e86-b0a9-1de0030d0d59 .tooltip .x_label{font-size:.6em;fill:rgba(0,0,0,1)}#chart-15130387-ad29-4e86-b0a9-1de0030d0d59 .tooltip .xlink{font-size:.5em;text-decoration:underline}#chart-15130387-ad29-4e86-b0a9-1de0030d0d59 .tooltip .value{font-size:1.5em}#chart-15130387-ad29-4e86-b0a9-1de0030d0d59 .map-element{fill:rgba(255,255,255,1);stroke:rgba(0,0,0,.54) !important}#chart-15130387-ad29-4e86-b0a9-1de0030d0d59 .map-element .reactive{fill-opacity:inherit}#chart-15130387-ad29-4e86-b0a9-1de0030d0d59 .color-0,#chart-15130387-ad29-4e86-b0a9-1de0030d0d59 .color-0 a:visited{stroke:#F44336;fill:#F44336}#chart-15130387-ad29-4e86-b0a9-1de0030d0d59 .text-overlay .color-0 text{fill:black}
#chart-15130387-ad29-4e86-b0a9-1de0030d0d59 text.no_data{text-anchor:middle}#chart-15130387-ad29-4e86-b0a9-1de0030d0d59 .guide.line{fill:none}#chart-15130387-ad29-4e86-b0a9-1de0030d0d59 .centered{text-anchor:middle}#chart-15130387-ad29-4e86-b0a9-1de0030d0d59 .title{text-anchor:middle}#chart-15130387-ad29-4e86-b0a9-1de0030d0d59 .legends .legend text{fill-opacity:1}#chart-15130387-ad29-4e86-b0a9-1de0030d0d59 .axis.x text{text-anchor:middle}#chart-15130387-ad29-4e86-b0a9-1de0030d0d59 .axis.x:not(.web) text[transform]{text-anchor:start}#chart-15130387-ad29-4e86-b0a9-1de0030d0d59 .axis.y text{text-anchor:end}#chart-15130387-ad29-4e86-b0a9-1de0030d0d59 .axis.y2 text{text-anchor:start}#chart-15130387-ad29-4e86-b0a9-1de0030d0d59 .axis .guide.line{stroke-dasharray:4,4}#chart-15130387-ad29-4e86-b0a9-1de0030d0d59 .axis .major.guide.line{stroke-dasharray:6,6}#chart-15130387-ad29-4e86-b0a9-1de0030d0d59 .horizontal .axis.y .guide.line,#chart-15130387-ad29-4e86-b0a9-1de0030d0d59 .horizontal .axis.y2 .guide.line,#chart-15130387-ad29-4e86-b0a9-1de0030d0d59 .vertical .axis.x .guide.line{opacity:0}#chart-15130387-ad29-4e86-b0a9-1de0030d0d59 .horizontal .axis.always_show .guide.line,#chart-15130387-ad29-4e86-b0a9-1de0030d0d59 .vertical .axis.always_show .guide.line{opacity:1 !important}#chart-15130387-ad29-4e86-b0a9-1de0030d0d59 .axis.y .guides:hover .guide.line,#chart-15130387-ad29-4e86-b0a9-1de0030d0d59 .axis.y2 .guides:hover .guide.line,#chart-15130387-ad29-4e86-b0a9-1de0030d0d59 .axis.x .guides:hover .guide.line{opacity:1}#chart-15130387-ad29-4e86-b0a9-1de0030d0d59 .axis .guides:hover text{opacity:1}#chart-15130387-ad29-4e86-b0a9-1de0030d0d59 .nofill{fill:none}#chart-15130387-ad29-4e86-b0a9-1de0030d0d59 .subtle-fill{fill-opacity:.2}#chart-15130387-ad29-4e86-b0a9-1de0030d0d59 .dot{stroke-width:1px;fill-opacity:1}#chart-15130387-ad29-4e86-b0a9-1de0030d0d59 .dot.active{stroke-width:5px}#chart-15130387-ad29-4e86-b0a9-1de0030d0d59 .dot.negative{fill:transparent}#chart-15130387-ad29-4e86-b0a9-1de0030d0d59 text,#chart-15130387-ad29-4e86-b0a9-1de0030d0d59 tspan{stroke:none !important}#chart-15130387-ad29-4e86-b0a9-1de0030d0d59 .series text.active{opacity:1}#chart-15130387-ad29-4e86-b0a9-1de0030d0d59 .tooltip rect{fill-opacity:.95;stroke-width:.5}#chart-15130387-ad29-4e86-b0a9-1de0030d0d59 .tooltip text{fill-opacity:1}</style><script type="text/javascript">window.pygal = window.pygal || {};window.pygal.config = window.pygal.config || {};window.pygal.config['15130387-ad29-4e86-b0a9-1de0030d0d59'] = {"y_labels_major_every": null, "inner_radius": 0, "print_values": false, "xrange": null, "box_mode": "extremes", "title": "Speed", "legend_at_bottom_columns": null, "height": 1000, "legend_at_bottom": false, "show_legend": true, "show_dots": false, "explicit_size": false, "y_labels_major": null, "show_minor_x_labels": true, "width": 1500, "force_uri_protocol": null, "half_pie": false, "style": {"major_label_font_family": "Consolas, \"Liberation Mono\", Menlo, Courier, monospace", "title_font_family": "Consolas, \"Liberation Mono\", Menlo, Courier, monospace", "tooltip_font_size": 14, "legend_font_family": "Consolas, \"Liberation Mono\", Menlo, Courier, monospace", "colors": ["#F44336", "#3F51B5", "#009688", "#FFC107", "#FF5722", "#9C27B0", "#03A9F4", "#8BC34A", "#FF9800", "#E91E63", "#2196F3", "#4CAF50", "#FFEB3B", "#673AB7", "#00BCD4", "#CDDC39", "#795548", "#9E9E9E", "#607D8B"], "legend_font_size": 14, "no_data_font_family": "Consolas, \"Liberation Mono\", Menlo, Courier, monospace", "major_label_font_size": 10, "label_font_family": "Consolas, \"Liberation Mono\", Menlo, Courier, monospace", "label_font_size": 10, "value_font_size": 16, "font_family": "Consolas, \"Liberation Mono\", Menlo, Courier, monospace", "opacity": ".7", "foreground": "rgba(0, 0, 0, .87)", "plot_background": "rgba(255, 255, 255, 1)", "value_label_font_size": 10, "value_label_font_family": "Consolas, \"Liberation Mono\", Menlo, Courier, monospace", "background": "rgba(249, 249, 249, 1)", "no_data_font_size": 64, "value_colors": [], "guide_stroke_dasharray": "4,4", "transition": "150ms", "foreground_subtle": "rgba(0, 0, 0, .54)", "value_font_family": "Consolas, \"Liberation Mono\", Menlo, Courier, monospace", "tooltip_font_family": "Consolas, \"Liberation Mono\", Menlo, Courier, monospace", "title_font_size": 16, "major_guide_stroke_dasharray": "6,6", "opacity_hover": ".8", "foreground_strong": "rgba(0, 0, 0, 1)"}, "x_label_rotation": 0, "missing_value_fill_truncation": "x", "legends": ["Mediam speed"], "zero": 0, "margin_right": null, "interpolation_parameters": {}, "x_labels_major": null, "rounded_bars": null, "show_y_labels": true, "dots_size": 2.5, "show_y_guides": true, "show_minor_y_labels": true, "x_labels": null, "y_title": null, "order_min": null, "fill": false, "disable_xml_declaration": false, "strict": false, "css": ["file://style.css", "file://graph.css"], "tooltip_fancy_mode": true, "show_only_major_dots": false, "y_label_rotation": 0, "human_readable": false, "min_scale": 4, "show_x_guides": false, "spacing": 10, "x_labels_major_count": null, "pretty_print": false, "tooltip_border_radius": 0, "interpolate": null, "js": ["//kozea.github.io/pygal.js/2.0.x/pygal-tooltips.min.js"], "y_labels": null, "stroke_style": null, "print_labels": false, "interpolation_precision": 250, "x_title": null, "value_formatter": null, "logarithmic": false, "max_scale": 16, "print_zeroes": true, "no_data_text": "No data", "truncate_legend": null, "x_labels_major_every": null, "secondary_range": null, "legend_box_size": 12, "no_prefix": false, "stroke": true, "x_value_formatter": null, "include_x_axis": false, "range": null, "truncate_label": null, "margin_top": null, "margin_left": null, "y_labels_major_count": null, "margin_bottom": null, "inverse_y_axis": false, "margin": 20, "stack_from_top": false, "show_x_labels": true}</script><script type="text/javascript" xlink:href="//kozea.github.io/pygal.js/2.0.x/pygal-tooltips.min.js"/></defs><title>Speed</title><g class="graph xy-graph vertical"><rect class="background" height="1000" width="1500" x="0" y="0"/><g class="plot" transform="translate(176, 46)"><rect class="background" height="914" width="1303.2" x="0" y="0"/><g class="axis y"><path class="line" d="M0.000000 914.000000 h1303.200000"/><g class="guides"><path class="guide line" d="M0.000000 844.463653 h1303.200000"/><text class="" x="-5" y="847.963652867">4.0</text><title>4.0</title></g><g class="guides"><path class="guide line" d="M0.000000 747.985158 h1303.200000"/><text class="" x="-5" y="751.485158376">6.0</text><title>6.0</title></g><g class="guides"><path class="guide line" d="M0.000000 651.506664 h1303.200000"/><text class="" x="-5" y="655.006663885">8.0</text><title>8.0</title></g><g class="guides"><path class="major guide line" d="M0.000000 555.028169 h1303.200000"/><text class="major" x="-5" y="558.528169394">10.0</text><title>10.0</title></g><g class="guides"><path class="guide line" d="M0.000000 458.549675 h1303.200000"/><text class="" x="-5" y="462.049674903">12.0</text><title>12.0</title></g><g class="guides"><path class="guide line" d="M0.000000 362.071180 h1303.200000"/><text class="" x="-5" y="365.571180412">14.0</text><title>14.0</title></g><g class="guides"><path class="guide line" d="M0.000000 265.592686 h1303.200000"/><text class="" x="-5" y="269.09268592">16.0</text><title>16.0</title></g><g class="guides"><path class="guide line" d="M0.000000 169.114191 h1303.200000"/><text class="" x="-5" y="172.614191429">18.0</text><title>18.0</title></g><g class="guides"><path class="major guide line" d="M0.000000 72.635697 h1303.200000"/><text class="major" x="-5" y="76.1356969381">20.0</text><title>20.0</title></g></g><g class="axis x"><g class="guides"><path class="line" d="M25.061538 0.000000 v914.000000"/><text class="" x="25.0615384615" y="929.0">0.0</text><title>0.0</title></g><g class="guides"><path class="guide line" d="M110.246917 0.000000 v914.000000"/><text class="" x="110.246917325" y="929.0">200.0</text><title>200.0</title></g><g class="guides"><path class="guide line" d="M195.432296 0.000000 v914.000000"/><text class="" x="195.432296188" y="929.0">400.0</text><title>400.0</title></g><g class="guides"><path class="guide line" d="M280.617675 0.000000 v914.000000"/><text class="" x="280.617675051" y="929.0">600.0</text><title>600.0</title></g><g class="guides"><path class="guide line" d="M365.803054 0.000000 v914.000000"/><text class="" x="365.803053914" y="929.0">800.0</text><title>800.0</title></g><g class="guides"><path class="guide line" d="M450.988433 0.000000 v914.000000"/><text class="" x="450.988432777" y="929.0">1000.0</text><title>1000.0</title></g><g class="guides"><path class="guide line" d="M536.173812 0.000000 v914.000000"/><text class="" x="536.17381164" y="929.0">1200.0</text><title>1200.0</title></g><g class="guides"><path class="guide line" d="M621.359191 0.000000 v914.000000"/><text class="" x="621.359190504" y="929.0">1400.0</text><title>1400.0</title></g><g class="guides"><path class="guide line" d="M706.544569 0.000000 v914.000000"/><text class="" x="706.544569367" y="929.0">1600.0</text><title>1600.0</title></g><g class="guides"><path class="guide line" d="M791.729948 0.000000 v914.000000"/><text class="" x="791.72994823" y="929.0">1800.0</text><title>1800.0</title></g><g class="guides"><path class="guide line" d="M876.915327 0.000000 v914.000000"/><text class="" x="876.915327093" y="929.0">2000.0</text><title>2000.0</title></g><g class="guides"><path class="guide line" d="M962.100706 0.000000 v914.000000"/><text class="" x="962.100705956" y="929.0">2200.0</text><title>2200.0</title></g><g class="guides"><path class="guide line" d="M1047.286085 0.000000 v914.000000"/><text class="" x="1047.28608482" y="929.0">2400.0</text><title>2400.0</title></g><g class="guides"><path class="guide line" d="M1132.471464 0.000000 v914.000000"/><text class="" x="1132.47146368" y="929.0">2600.0</text><title>2600.0</title></g><g class="guides"><path class="guide line" d="M1217.656843 0.000000 v914.000000"/><text class="" x="1217.65684255" y="929.0">2800.0</text><title>2800.0</title></g></g><g class="series serie-0 color-0"><path class="line reactive nofill" d="M25.061538 553.465996 L26.339319 551.374873 26.765246 551.275741 27.191173 551.176608 27.617100 549.572642 28.043027 547.968676 28.468954 547.292595 28.894881 546.616515 29.320807 545.005593 29.746734 543.394670 30.172661 527.032907 30.598588 498.603130 31.024515 485.937524 31.450442 482.710833 31.876369 483.308426 32.302296 483.308426 32.728223 483.308426 33.154149 483.308426 33.580076 483.308426 34.006003 487.762658 34.431930 476.407926 34.857857 476.407926 35.283784 476.407926 35.709711 476.407926 36.135638 467.029722 36.561565 479.937739 36.987492 491.292471 37.413418 491.292471 37.839345 491.292471 38.265272 491.292471 38.691199 491.292471 39.117126 491.292471 39.543053 491.292471 39.968980 491.292471 40.394907 491.292471 40.820834 491.292471 41.246760 491.292471 41.672687 500.213240 42.098614 509.206277 42.524541 479.937739 42.950468 497.773940 43.376395 497.773940 43.802322 497.773940 44.228249 497.773940 44.654176 521.530688 45.080102 521.530688 45.506029 511.886545 45.931956 525.253346 46.357883 525.253346 46.783810 525.253346 47.209737 525.253346 47.635664 525.253346 48.061591 525.253346 48.487518 525.253346 48.913445 511.886545 49.339371 511.886545 49.765298 500.669509 50.191225 492.932495 50.617152 491.146932 51.043079 491.146932 51.469006 491.146932 51.894933 491.146932 52.320860 491.146932 52.746787 491.146932 53.172713 491.146932 53.598640 488.251261 54.024567 488.251261 54.450494 484.494992 54.876421 484.494933 55.302348 484.494933 55.728275 487.141090 56.154202 487.141090 56.580129 491.233741 57.006056 491.233682 57.431982 495.326337 57.857909 495.326337 58.283836 495.926788 58.709763 498.319284 59.135690 501.811637 59.561617 501.811637 59.987544 503.511928 60.413471 500.019575 60.839398 495.926788 61.265324 495.326337 61.691251 494.129389 62.117178 494.129389 62.543105 490.036738 62.969032 490.036738 63.394959 490.036684 63.820886 490.036684 64.246813 477.646526 64.672740 466.940955 65.098667 461.821291 65.524593 466.940955 65.950520 466.940955 66.376447 466.940955 66.802374 466.940955 67.228301 466.940955 67.654228 466.940955 68.080155 476.435352 68.506082 476.435352 68.932009 476.435352 69.357935 485.918049 69.783862 516.768752 70.209789 528.469348 70.635716 528.469348 71.061643 530.389271 71.487570 530.389271 71.913497 530.389271 72.339424 530.389271 72.765351 530.389271 73.191278 530.389271 74.043131 533.286579 74.469058 533.286579 74.894985 533.286579 75.320912 533.286579 75.746839 528.158368 76.172766 528.158368 76.598693 528.158368 77.024620 520.517801 77.450546 515.911962 77.876473 515.911962 78.302400 505.955346 78.728327 505.955346 79.154254 505.955346 79.580181 515.911962 80.006108 515.911962 80.857962 520.439865 81.283889 535.739625 81.709815 548.428461 82.135742 548.428461 82.561669 548.428461 82.987596 544.476956 83.413523 549.762136 83.839450 549.762136 84.691304 549.762136 85.543157 553.096096 86.395011 549.762136 86.820938 544.476956 88.524646 544.476956 88.950573 544.476956 89.376500 541.754942 89.802426 541.754942 90.228353 541.754942 90.654280 533.904547 91.080207 521.757047 91.506134 521.757047 91.932061 521.757047 92.357988 521.757047 92.783915 521.757047 93.209842 521.757047 93.635768 533.904547 94.061695 540.989645 94.487622 540.989645 94.913549 546.172731 95.339476 551.488664 95.765403 546.172731 96.191330 551.488664 96.617257 561.780441 97.469110 561.780441 97.895037 561.780441 98.320964 580.559021 98.746891 589.952921 99.172818 589.952921 100.024672 589.952921 100.450599 589.952921 100.876526 581.333147 101.302453 581.333147 101.728379 561.780441 102.154306 539.323745 102.580233 526.922975 104.709868 526.375382 105.135795 526.375382 105.561721 518.691901 105.987648 506.702866 106.413575 495.375947 106.839502 487.443021 107.265429 478.590982 107.691356 478.590982 108.969137 478.590982 110.672844 478.590982 111.098771 478.590982 111.524698 473.577924 111.950625 473.577924 112.376552 464.778145 112.802479 473.577924 113.228406 480.347845 113.654332 480.347845 114.080259 480.347845 116.209894 485.360904 116.635821 485.360904 117.061748 480.347845 117.487675 475.753824 118.765455 469.648551 119.191382 461.960015 119.617309 469.648551 120.043236 475.753824 120.469163 480.347845 120.895090 480.347845 121.321017 480.347845 121.746943 480.347845 122.172870 475.753824 122.598797 469.648551 123.024724 469.648551 123.450651 469.648551 123.876578 461.960015 124.302505 461.960015 124.728432 469.648551 125.580286 480.652931 126.006212 461.960015 127.283993 456.213975 128.561774 456.213975 128.987701 478.762919 129.413628 503.052851 129.839554 511.129404 130.691408 512.325928 131.117335 517.597182 131.543262 512.530509 131.969189 511.247440 132.395116 481.700431 132.821043 441.614159 133.246970 430.256077 133.672897 430.256077 134.098823 430.256077 134.524750 430.256077 134.950677 430.256077 135.376604 424.876619 136.654385 418.720630 137.080312 413.227093 137.506239 418.720630 137.932165 424.876619 138.358092 430.256077 138.784019 430.256077 139.209946 430.256077 139.635873 430.256077 140.061800 430.256077 140.487727 430.256077 140.913654 430.256077 141.339581 436.529111 141.765508 451.267387 142.191434 461.554494 142.617361 466.936857 143.043288 480.133516 143.469215 494.835068 143.895142 494.835068 144.321069 494.835068 144.746996 501.036195 145.172923 505.268545 145.598850 511.105340 146.024776 515.788535 146.450703 518.345907 146.876630 520.510356 147.302557 520.510356 147.728484 520.510356 148.154411 520.510356 148.580338 520.510406 149.006265 520.510406 149.432192 520.510406 149.858118 520.510406 150.284045 520.510406 150.709972 520.510406 151.135899 515.788655 151.561826 512.655626 151.987753 508.764971 152.413680 512.655626 152.839607 517.953035 153.265534 524.029661 153.691461 517.377378 154.117387 511.366165 154.543314 508.051167 154.969241 505.306330 155.395168 501.841800 155.821095 497.087132 156.247022 497.087132 156.672949 500.408018 157.098876 500.408018 157.524803 505.306330 157.950729 508.051167 158.376656 511.366165 158.802583 538.669675 159.228510 537.955871 159.654437 537.955871 160.080364 537.955871 160.506291 537.955871 160.932218 495.511397 161.358145 478.705483 161.784072 475.059868 162.209998 475.059868 162.635925 477.663789 163.061852 479.328738 163.487779 481.472040 163.913706 483.752523 164.339633 529.878754 164.765560 529.878754 165.191487 529.878754 165.617414 513.414632 168.172975 499.107201 168.598902 499.107201 169.024829 499.107201 169.450756 499.107201 169.876683 527.223712 170.302609 537.505806 170.728536 541.531143 171.154463 548.256084 171.580390 558.966903 172.006317 558.966903 172.432244 558.966903 172.858171 558.966903 173.284098 558.966903 173.710025 558.966903 174.135951 548.256084 174.561878 541.531143 174.987805 539.307546 175.413732 535.648931 175.839659 524.140915 176.265586 513.858821 176.691513 524.140915 177.117440 524.140915 177.543367 524.140915 177.969294 524.140915 178.395220 524.140915 178.821147 525.942655 179.247074 525.942655 179.673001 525.942655 180.098928 525.942655 180.524855 538.349775 180.950782 543.351372 181.376709 554.583075 181.802636 554.583075 182.228562 564.578317 182.654489 569.701000 183.080416 574.814036 183.506343 574.814036 183.932270 574.814036 184.358197 574.814036 185.210051 574.814036 186.061905 569.701000 186.487831 565.764195 186.913758 565.764195 187.339685 571.107581 187.765612 571.107581 188.191539 577.064956 188.617466 579.593436 189.043393 577.064956 189.469320 569.427428 189.895247 558.596473 190.321173 548.144178 190.747100 538.259730 191.173027 536.274582 191.598954 536.274582 192.024881 528.516843 192.450808 526.454332 192.876735 524.688154 193.302662 523.402364 193.728589 523.402364 194.154516 523.958901 194.580442 523.958901 195.006369 521.922784 195.432296 521.922784 195.858223 521.922784 196.284150 521.922784 196.710077 520.269639 197.136004 516.977730 197.561931 512.498202 197.987858 516.977730 198.413784 516.977730 198.839711 516.977730 199.265638 512.498202 199.691565 512.498202 200.117492 509.529657 200.543419 502.153741 200.969346 502.513615 201.395273 491.758478 201.821200 491.758478 202.247126 472.816494 202.673053 454.069975 203.098980 446.717592 203.524907 442.993636 203.950834 433.953185 204.376761 433.634964 204.802688 433.634964 205.228615 433.634964 205.654542 441.882109 206.080469 442.993636 206.506395 442.993636 206.932322 445.924285 207.358249 454.069975 207.784176 467.998040 208.210103 486.940023 208.636030 487.710923 209.061957 493.893221 209.487884 485.228467 209.913811 485.228467 210.339737 485.228467 210.765664 485.228467 211.191591 491.410918 211.617518 493.427438 212.043445 493.427438 212.469372 493.427438 212.895299 493.427438 213.321226 491.410918 213.747153 488.375464 214.173080 482.193167 214.599006 482.193167 215.024933 482.193167 215.450860 482.193167 215.876787 487.350891 216.302714 487.350891 216.728641 487.350891 217.154568 487.350891 217.580495 476.529627 218.006422 476.529627 218.432348 487.350891 218.858275 476.529627 219.284202 476.529627 219.710129 476.529627 220.561983 476.529627 220.987910 464.993120 221.413837 461.229353 221.839764 461.229353 222.265691 461.229353 222.691617 461.229353 223.117544 461.229353 223.543471 457.062026 223.969398 451.696034 224.395325 447.728102 224.821252 445.255256 225.247179 437.474472 225.673106 437.474472 226.099033 437.474472 226.524959 438.215851 226.950886 447.728102 227.376813 447.728102 227.802740 449.964566 228.228667 449.964566 228.654594 437.297333 229.080521 422.976264 229.506448 422.976264 229.932375 408.173889 230.358302 420.085659 230.784228 425.707426 231.210155 435.086158 231.636082 449.545961 232.062009 457.518030 232.487936 465.341198 232.913863 476.655788 233.339790 476.655788 233.765717 476.655788 234.191644 480.270925 234.617570 482.115277 235.043497 476.922388 235.469424 476.922388 235.895351 467.870983 236.321278 467.870983 236.747205 467.870983 237.173132 479.203681 237.599059 485.544085 238.024986 486.978318 238.450913 495.429809 238.876839 505.719534 239.302766 508.705553 239.728693 508.705553 240.154620 500.248105 240.580547 489.958380 241.006474 486.978318 241.432401 486.978318 241.858328 489.958380 242.284255 500.548907 242.710181 498.404658 243.136108 498.404658 243.562035 501.414347 243.987962 501.414347 244.413889 504.896262 244.839816 509.879112 245.265743 509.879112 245.691670 504.896262 246.117597 504.896262 246.543524 501.414347 246.969450 501.414347 247.395377 495.101148 247.821304 490.521773 248.247231 493.531462 248.673158 501.414347 249.099085 504.896262 249.525012 504.896262 249.950939 504.896262 250.376866 504.896262 250.802792 504.896262 251.228719 507.042131 251.654646 512.499570 252.080573 512.499570 252.506500 517.182360 252.932427 517.182360 253.358354 512.499570 253.784281 502.335774 254.210208 502.335774 254.636134 502.335774 255.062061 502.335774 255.487988 492.307020 255.913915 492.307020 256.339842 488.205239 256.765769 476.742519 257.191696 467.761164 257.617623 461.777998 258.043550 461.777998 258.469477 461.777998 258.895403 456.104210 259.321330 450.553121 259.747257 450.553121 260.173184 446.897030 260.599111 443.961438 261.025038 443.419602 261.450965 441.321749 261.876892 441.321749 262.302819 432.264936 262.728745 432.264936 263.154672 422.190819 263.580599 418.632735 264.006526 417.812513 264.432453 417.812513 264.858380 418.632735 265.284307 422.190819 265.710234 421.134694 266.136161 418.632735 266.562088 417.812513 266.988014 415.728680 267.413941 415.728680 267.839868 412.400943 268.265795 406.193318 268.691722 397.628131 269.117649 391.818855 269.543576 391.818855 269.969503 389.611057 270.395430 395.420395 270.821356 395.420395 271.247283 395.420395 271.673210 406.193318 272.099137 412.400943 272.525064 413.564236 272.950991 413.564236 273.376918 413.564236 273.802845 413.564236 274.228772 413.564236 274.654699 416.034726 275.080625 421.399994 275.506552 425.647744 275.932479 429.002438 276.358406 433.155359 276.784333 436.471524 277.210260 436.471524 277.636187 436.471524 278.062114 436.471524 278.488041 436.471524 278.913967 437.743882 279.339894 437.743882 279.765821 438.575059 280.191748 441.857201 280.617675 441.857201 281.043602 441.857201 281.469529 443.682399 281.895456 446.045493 282.321383 443.682399 282.747310 443.682399 283.173236 443.682399 283.599163 443.682399 284.025090 441.420412 284.451017 437.575137 284.876944 431.318700 285.302871 427.082782 285.728798 427.082782 286.154725 431.318700 286.580652 431.318700 287.006578 431.318700 287.432505 431.318700 287.858432 431.318700 288.284359 425.649744 288.710286 419.388519 289.136213 419.388519 289.562140 419.388519 289.988067 419.388519 290.413994 419.388519 290.839921 419.388519 291.265847 412.282008 291.691774 410.397002 292.117701 410.397002 292.543628 403.937801 292.969555 400.549053 293.395482 398.208822 293.821409 397.977313 294.247336 399.224210 294.673263 399.224210 295.099189 400.549053 295.525116 402.122690 295.951043 402.122690 296.376970 402.122690 296.802897 402.122690 297.228824 401.266610 297.654751 399.692973 298.080678 399.224210 298.506605 399.224210 301.062166 399.224210 301.488093 399.461464 301.914020 399.930240 302.339947 401.266622 302.765874 407.045113 303.191800 415.330541 303.617727 424.678777 304.043654 434.181691 304.469581 434.550261 304.895508 434.550261 305.321435 442.021755 305.747362 444.036597 306.173289 440.194518 306.599216 440.194518 307.025142 444.036597 307.451069 444.036597 307.876996 444.036597 308.302923 444.036597 308.728850 444.036597 309.154777 444.036597 309.580704 444.036597 310.006631 441.889807 310.432558 439.553311 310.858485 439.553311 311.284411 439.553311 311.710338 434.228607 312.136265 434.228607 312.562192 434.228607 312.988119 433.990792 313.414046 439.553311 313.839973 439.553311 314.265900 439.553311 314.691827 442.208636 315.117753 442.208636 315.543680 442.208636 315.969607 443.651108 316.395534 447.942051 316.821461 454.120957 317.247388 454.120957 317.673315 456.972645 318.099242 458.601503 318.525169 461.372775 318.951096 461.372775 319.377022 461.372775 319.802949 461.372056 320.228876 468.079513 320.654803 470.519720 321.080730 470.519720 321.506657 473.287696 321.932584 476.713177 322.358511 476.713177 322.784438 476.713177 323.210364 480.164784 323.636291 480.164784 324.062218 485.323091 324.488145 485.323091 324.914072 492.167380 325.339999 495.867762 325.765926 504.787051 326.191853 519.158494 326.617780 555.690582 327.469633 578.249341 327.895560 578.249341 328.747414 578.249341 329.599268 579.499679 331.728902 592.757047 332.580756 592.757047 333.432610 592.757047 333.858537 592.757047 334.284464 592.757047 334.710391 592.757047 335.136318 579.499679 335.562244 573.215538 335.988171 568.620149 336.414098 562.100855 336.840025 555.696394 337.265952 551.920091 337.691879 544.161507 338.117806 534.211334 338.543733 528.360039 338.969660 522.638458 339.395586 518.035357 339.821513 509.094098 340.247440 496.779341 340.673367 489.612723 341.099294 486.577920 341.525221 486.577920 341.951148 486.577920 342.377075 486.577920 342.803002 486.577920 343.228929 486.577920 343.654855 501.927480 344.080782 501.927480 344.506709 501.927480 344.932636 501.927480 345.358563 516.760283 345.784490 553.081192 346.210417 562.738610 346.636344 565.020707 347.062271 565.020780 347.488197 566.323621 347.914124 566.323621 348.340051 569.528486 348.765978 571.430559 349.191905 571.526624 349.617832 571.622676 350.043759 571.622676 350.469686 571.526624 350.895613 571.430559 351.321540 571.430559 351.747466 571.526601 352.173393 571.622676 352.599320 571.622693 353.025247 574.100063 353.451174 574.100063 353.877101 578.970815 354.303028 583.603105 354.728955 589.837103 355.154882 593.832174 355.580808 593.832223 356.006735 593.832223 356.432662 593.832252 356.858589 595.579864 357.284516 600.644937 357.710443 606.129595 358.136370 608.296795 358.562297 608.296795 358.988224 610.294963 359.414150 612.293203 359.840077 614.117385 360.266004 615.941550 360.691931 615.941620 361.117858 615.941620 361.543785 617.587254 361.969712 621.971998 362.395639 629.600516 362.821566 636.211969 363.247493 639.465947 363.673419 654.076352 364.525273 710.893564 365.377127 771.034131 366.228981 795.978697 367.080835 821.099362 368.784542 821.099362 369.636396 821.769152 370.488250 823.033449 373.895665 823.033449 375.173446 823.033449 376.451226 823.033449 377.303080 823.033449 378.154934 823.033449 379.432715 823.033449 380.284568 823.033449 381.136422 807.125307 381.988276 798.447740 382.840130 786.275224 383.691983 780.251468 384.543837 777.424465 385.395691 775.594886 386.247545 775.594886 387.099399 771.110754 387.525326 765.878918 388.377179 765.878918 389.229033 762.742289 390.080887 755.580100 390.932741 748.506078 391.784594 746.472405 392.636448 745.318515 393.488302 737.967053 394.340156 737.967053 395.192010 737.967053 396.043863 737.967053 396.895717 737.967053 397.747571 730.292187 398.599425 728.096270 399.025352 720.105287 399.451279 704.231201 399.877205 692.084526 400.303132 676.094144 400.729059 663.110841 401.580913 661.276935 402.006840 661.276935 402.432767 661.276935 402.858694 661.276935 403.284621 661.276935 403.710548 661.276935 404.136474 663.110841 404.562401 664.766687 404.988328 664.766687 405.414255 664.766687 405.840182 689.896664 406.692036 711.272494 407.543890 790.237391 408.395743 821.919895 409.247597 821.919895 410.525378 821.919895 411.377232 821.919895 412.229085 821.919895 413.506866 821.919895 414.784647 821.919895 416.062427 821.919895 417.340208 821.919895 418.192062 821.919895 419.043916 816.330139 419.469843 708.836484 419.895769 584.687007 420.321696 584.687007 420.747623 570.994622 421.173550 570.994622 421.599477 570.994622 422.025404 570.994622 422.451331 570.994622 422.877258 570.994622 423.303185 570.994622 423.729112 570.994622 424.155038 518.972901 424.580965 518.972901 425.006892 518.972901 425.432819 518.972901 425.858746 518.972901 426.284673 518.972901 426.710600 518.972901 427.136527 518.972901 427.562454 518.972901 427.988380 538.755273 428.414307 544.338169 428.840234 544.338169 429.266161 550.118278 429.692088 550.118278 430.118015 550.118278 430.543942 550.118278 430.969869 550.118278 431.395796 550.118278 432.247649 550.118278 432.673576 577.511114 433.099503 658.559157 433.951357 762.232726 435.229138 867.180712 436.932845 884.500420 440.340260 884.500420 442.043968 884.500420 443.747676 884.500420 446.303237 884.500420 447.581018 884.500420 449.284725 884.500420 450.988433 884.500420 452.266213 884.500420 453.543994 884.500420 454.821775 896.423077 455.673629 887.134978 456.525482 871.349831 456.951409 850.491828 457.803263 841.870268 458.229190 841.870268 459.081044 841.870268 459.932898 841.870268 460.784751 841.870268 462.062532 828.086550 463.340313 810.606198 464.192167 802.978255 465.044020 802.978255 465.895874 802.978255 466.747728 803.403041 468.025509 810.606198 468.877362 820.241742 469.729216 832.701774 470.581070 841.870268 471.432924 843.693419 472.284777 841.870268 473.136631 837.297255 473.988485 833.099944 474.840339 833.099944 475.692193 839.120406 477.395900 833.099944 478.673681 828.504463 479.525535 821.608451 480.377388 809.790069 481.229242 809.790069 482.081096 809.790069 482.932950 809.790069 483.784804 809.790069 484.636657 809.790069 485.488511 798.063635 485.914438 688.533233 486.340365 479.675509 486.766292 293.943825 487.192219 195.689841 487.618146 156.119642 488.044073 140.212215 488.469999 131.195240 488.895926 121.967601 489.321853 107.464884 489.747780 92.927678 490.173707 92.927678 490.599634 92.927678 491.025561 82.285220 491.451488 80.371066 491.877415 80.371066 492.303342 82.285220 492.729268 92.927678 493.155195 97.628644 493.581122 97.628644 494.007049 97.628644 494.432976 108.395053 494.858903 108.395053 495.284830 108.395053 495.710757 119.690868 496.136684 132.443044 496.562610 154.516644 496.988537 186.359701 499.544099 205.610178 499.970026 420.692869 500.395953 650.822476 501.247806 694.167119 502.099660 708.851540 502.951514 708.851540 503.803368 710.748270 504.655221 710.748270 505.507075 710.748270 506.358929 710.748270 507.210783 710.748270 508.062637 710.748270 508.914490 710.748270 509.766344 710.748270 510.618198 698.420553 511.044125 690.461554 511.470052 650.170526 511.895979 553.110638 512.321906 404.954973 512.747832 249.401497 513.173759 173.424656 513.599686 162.862131 514.025613 162.862131 514.451540 162.862131 514.877467 162.862131 515.303394 162.862131 515.729321 162.862131 516.155248 155.496966 516.581175 155.496966 517.007101 152.069384 517.433028 142.671161 517.858955 152.069384 518.284882 152.069384 518.710809 152.069384 519.136736 152.069384 519.562663 155.496966 519.988590 152.069384 520.414517 152.069384 520.840443 156.351255 521.266370 164.401896 521.692297 173.608407 522.118224 183.097550 522.544151 183.097550 522.970078 183.097550 523.396005 183.097550 523.821932 183.097550 524.247859 183.097550 524.673785 303.464251 525.099712 457.114397 525.525639 553.556352 526.377493 675.578104 527.229347 735.844407 528.081201 735.844407 528.933054 735.844407 529.784908 735.844407 530.636762 735.844407 531.488616 735.844407 532.340470 735.844407 533.192323 735.844407 534.044177 735.844407 534.896031 735.844407 535.747885 712.053435 536.173812 688.505624 536.599739 670.898871 537.025665 623.287508 537.451592 492.083078 537.877519 320.203836 538.303446 220.603310 538.729373 177.407063 539.155300 158.062073 539.581227 158.062073 540.007154 149.014902 540.433081 141.261258 540.859007 136.870280 541.284934 128.869863 541.710861 121.170812 542.136788 111.699686 542.562715 105.823962 542.988642 105.336565 543.414569 105.336565 543.840496 111.699578 544.266423 111.212289 544.692350 111.212289 545.544203 121.170812 545.970130 121.170812 546.396057 121.170812 546.821984 121.170812 547.247911 128.869863 548.099765 133.260840 548.951618 138.606521 549.803472 138.606521 550.229399 198.212040 550.655326 379.671963 551.081253 559.322211 551.507180 607.818798 552.359034 672.598335 553.210887 733.568237 554.062741 733.568237 554.914595 733.568237 555.766449 733.568237 556.618303 733.568237 557.470156 733.568237 558.322010 733.568237 559.173864 733.568237 560.025718 733.568237 560.877572 733.568237 561.729425 724.315039 562.155352 695.468688 562.581279 647.188618 563.007206 502.930635 563.433133 275.082470 563.859060 126.061280 564.284987 98.438879 564.710914 98.438879 565.136840 74.215787 565.562767 58.605069 565.988694 54.903691 566.414621 54.903691 566.840548 51.457581 567.266475 49.621360 567.692402 45.604796 568.118329 39.320343 568.544256 39.320343 568.970183 45.604796 569.396109 45.604796 569.822036 49.621360 570.247963 51.457581 570.673890 56.144315 571.099817 62.587438 571.525744 76.957532 572.377598 89.678844 572.803525 99.531841 573.229451 101.212605 573.655378 101.212605 574.081305 113.515413 574.507232 142.456175 574.933159 194.647998 575.359086 242.183108 575.785013 282.757225 576.210940 406.508203 577.062793 615.586577 577.914647 725.713874 578.766501 728.710117 579.618355 728.710117 580.470209 728.710117 581.322062 728.710117 582.173916 728.710117 583.025770 728.710117 583.877624 728.710117 584.729478 728.710117 585.581331 728.710117 586.433185 722.062292 587.285039 709.954495 587.710966 686.096377 588.136893 637.656044 588.562820 515.632410 588.988747 368.238755 589.414673 266.552354 589.840600 191.288904 590.266527 165.293506 590.692454 160.495208 591.118381 145.188621 591.544308 131.729148 591.970235 130.476969 592.396162 130.476969 592.822089 128.120824 593.248015 116.450666 593.673942 100.344260 594.099869 96.936152 594.525796 102.476395 594.951723 102.476395 595.377650 97.325015 595.803577 97.325015 596.229504 102.476395 596.655431 106.586407 597.081358 110.630292 597.507284 118.553153 597.933211 124.657105 598.359138 124.657105 599.210992 124.657105 599.636919 124.657105 600.062846 124.657105 600.488773 126.598504 600.914700 131.796070 601.340626 178.869605 601.766553 353.503709 602.192480 531.073719 603.044334 667.573712 603.896188 745.981101 604.748042 745.981101 605.599895 745.981101 606.451749 745.981101 607.303603 745.981101 608.155457 745.981101 609.007311 745.981101 609.859164 745.981101 610.711018 745.981101 611.562872 745.981101 612.414726 727.769091 613.266580 702.828255 613.692506 635.104581 614.118433 481.636169 614.544360 296.613001 614.970287 173.586176 615.396214 149.344677 615.822141 149.344677 616.248068 132.975072 616.673995 112.981756 617.099922 102.764257 617.525848 99.243464 617.951775 84.467949 618.377702 69.181281 618.803629 69.181281 619.229556 69.181281 621.785117 69.181281 622.211044 80.197594 622.636971 94.973109 623.062898 102.764257 623.488825 108.561465 623.914752 118.778963 624.340679 131.449651 624.766606 139.116264 625.192533 147.819256 625.618459 170.050470 626.044386 190.691370 626.896240 268.005933 627.322167 451.398170 627.748094 629.873177 628.599948 718.573214 629.451801 747.544766 630.303655 752.137247 631.155509 752.137247 632.007363 752.137247 632.859217 752.137247 633.711070 752.137247 634.562924 752.137247 635.414778 752.137247 636.266632 752.137247 637.118486 752.137247 637.970339 747.544766 638.822193 734.286297 639.248120 639.115106 639.674047 422.787331 640.099974 212.955069 640.525901 119.532658 640.951828 119.532658 641.377755 119.532658 641.803681 119.532658 642.229608 119.532658 642.655535 119.532658 643.081462 119.532658 643.507389 96.474331 643.933316 96.474331 644.359243 96.474331 644.785170 96.474331 645.211097 98.151131 645.637023 112.073812 646.062950 112.073812 646.488877 112.073812 646.914804 126.651622 647.340731 126.651622 647.766658 138.051171 648.192585 143.072714 648.618512 149.018252 649.044439 153.797321 649.470366 156.782963 649.896292 156.782963 650.748146 156.782963 651.174073 156.782963 651.600000 156.782963 652.025927 220.024113 652.451854 315.948675 652.877781 466.862819 653.729634 625.562560 654.581488 669.382903 655.433342 679.916306 656.285196 698.035791 657.137050 702.659416 657.988903 702.659416 658.840757 702.659416 659.266684 702.659416 659.692611 702.659416 660.118538 702.659416 660.970392 702.659416 661.822245 694.189910 662.674099 685.524051 663.525953 675.874072 663.951880 669.382903 664.377807 653.216803 664.803734 552.825971 665.229661 355.015357 665.655588 194.404402 666.081514 137.276930 666.507441 131.160870 666.933368 131.160870 667.359295 131.160870 667.785222 131.160870 668.211149 131.160870 668.637076 131.160870 669.063003 114.982559 669.488930 100.911114 669.914856 96.758849 670.340783 96.758849 670.766710 96.758849 671.192637 96.758849 671.618564 100.911114 672.044491 103.856133 672.470418 116.931526 672.896345 131.160870 673.322272 135.927738 673.748199 135.927738 674.174125 140.052918 675.025979 155.456982 675.877833 170.175891 676.729687 170.175891 677.155614 170.175891 677.581541 191.554447 678.007467 302.088428 678.433394 475.047736 678.859321 588.975464 679.711175 669.026751 680.563029 701.200893 681.414883 709.010598 682.266736 709.010598 683.118590 709.010598 683.970444 709.010598 684.822298 709.010598 685.674152 709.010598 686.526005 709.010598 687.377859 709.010598 687.803786 709.010598 688.655640 693.033376 689.507494 678.286811 689.933420 652.920055 690.359347 558.256328 690.785274 375.902689 691.211201 228.474445 691.637128 164.873460 692.063055 129.325146 692.488982 129.325146 692.914909 129.325146 693.340836 129.325146 693.766763 129.325146 694.192689 108.624488 694.618616 108.624488 695.044543 108.624488 695.470470 108.624488 695.896397 100.323120 696.322324 100.323120 696.748251 103.815395 697.174178 100.323120 697.600105 103.815395 698.026031 111.719193 698.451958 120.617478 698.877885 132.447785 699.303812 132.447785 699.729739 141.106680 700.155666 142.133634 700.581593 153.681663 701.007520 153.681663 701.433447 153.681663 701.859374 153.681663 702.285300 153.681663 702.711227 171.053101 703.137154 180.995278 703.563081 242.192162 703.989008 453.268269 704.414935 619.280729 705.266789 638.230113 706.118642 646.941548 706.970496 658.892812 707.822350 658.892812 708.674204 669.051123 709.526058 669.051123 709.951985 669.051123 710.803838 669.051123 711.229765 669.051123 711.655692 669.051123 712.507546 669.051123 712.933473 662.536893 713.359400 654.768743 713.785327 652.963170 714.211253 651.124650 714.637180 648.554553 715.063107 639.843118 715.489034 628.059921 715.914961 558.244236 716.340888 397.958862 716.766815 224.312498 717.192742 133.361797 717.618669 113.211227 718.044596 113.211227 718.470522 111.777555 718.896449 111.777555 719.322376 111.777555 719.748303 111.777555 720.174230 111.777555 720.600157 111.777555 721.026084 111.777555 721.452011 111.777555 721.877938 119.164053 722.303864 119.164053 722.729791 119.164053 723.155718 119.164053 723.581645 119.164053 724.007572 119.164053 724.433499 119.164053 724.859426 121.148047 725.285353 127.603446 725.711280 134.113447 726.137207 135.747167 726.563133 149.368789 726.989060 162.072588 727.414987 166.198341 727.840914 172.784074 728.266841 180.766281 728.692768 214.142705 729.118695 255.585657 729.544622 323.399515 729.970549 524.767170 730.822402 747.608866 732.952037 837.963370 734.229817 845.847292 735.507598 851.099941 736.785379 851.099941 738.063160 851.099941 738.915013 851.099941 739.766867 859.739904 740.618721 868.654984 741.470575 874.623191 742.748355 874.623191 744.877990 874.623191 747.433551 861.105627 748.285405 851.099941 749.137259 845.847292 749.989113 838.894800 751.266893 835.172921 752.970601 829.422512 754.674308 818.331718 755.526162 807.291710 756.378016 796.410734 757.229870 737.760758 757.655797 655.861908 758.081724 624.237894 758.507650 624.237894 758.933577 624.237894 759.359504 618.958560 759.785431 618.958560 760.211358 618.958560 760.637285 613.932314 761.063212 613.932314 761.489139 613.932314 761.915066 613.932314 762.340993 613.932314 762.766919 618.958560 763.192846 624.237738 763.618773 627.936514 764.044700 632.080284 764.470627 634.787530 764.896554 637.327070 765.322481 640.264182 765.748408 644.814355 766.174335 653.292674 766.600261 660.108167 767.452115 695.320123 768.303969 742.795388 769.155823 768.377345 770.007677 797.243730 771.285457 833.832054 775.970653 855.161214 777.248434 859.961824 778.526215 862.155477 779.803995 870.146749 781.081776 880.064797 782.359557 880.064797 784.063264 880.064797 785.341045 880.064797 786.618825 880.064797 787.470679 880.064797 788.322533 870.146749 789.174387 862.155477 790.452168 862.155477 792.155875 857.354867 793.007729 740.727357 793.433656 415.071545 793.859583 168.823740 794.285510 114.061498 794.711436 86.729774 795.137363 81.145701 795.563290 81.145701 795.989217 81.145701 796.415144 81.145701 796.841071 80.354709 797.266998 76.086331 797.692925 65.787487 798.118852 65.787487 798.544779 65.787487 798.970705 76.086331 799.396632 80.354709 799.822559 81.145701 800.674413 86.729774 801.526267 94.977657 801.952194 99.505519 802.804047 103.501995 803.229974 107.795133 803.655901 110.761281 804.081828 124.141002 804.507755 142.049445 804.933682 166.470686 805.359609 232.122029 805.785536 317.924888 806.211463 436.528049 807.063316 629.798238 807.915170 748.686730 808.767024 753.279288 809.618878 753.279288 810.470732 753.279288 811.322585 753.279288 812.174439 753.279288 813.026293 753.279288 813.878147 753.279288 814.730001 753.279288 815.581854 753.279288 816.433708 748.106531 817.285562 729.653632 817.711489 695.468842 818.137416 623.383624 818.563343 458.788500 818.989269 299.814495 819.415196 198.128308 819.841123 138.601106 820.267050 134.064535 820.692977 105.570443 821.118904 73.165238 821.544831 43.948987 821.970758 17.576923 822.396685 17.576923 822.822612 17.576923 823.248538 17.576923 823.674465 17.576923 824.100392 17.576923 824.526319 17.576923 824.952246 17.576923 825.378173 33.311309 825.804100 58.459404 826.230027 58.459404 826.655954 58.459404 827.081880 73.309693 827.507807 100.482967 827.933734 121.397887 828.359661 130.351177 828.785588 151.699598 829.211515 169.456373 829.637442 177.799134 830.063369 183.866756 830.489296 187.089035 830.915223 203.934909 831.341149 234.779525 831.767076 287.281587 832.193003 410.252446 832.618930 539.551212 833.044857 600.518671 833.896711 657.394369 834.748565 700.019025 835.600418 700.019025 836.452272 700.019025 837.304126 700.019025 838.155980 700.019025 839.007833 700.019025 839.859687 700.019025 840.711541 700.019025 841.563395 700.019025 842.415249 700.019025 842.841176 693.416410 843.267102 671.299435 843.693029 623.397514 844.118956 514.320507 844.544883 358.863770 844.970810 244.723999 845.396737 176.604237 845.822664 149.915891 846.248591 149.915891 846.674518 149.915891 847.100444 144.690443 847.526371 144.690443 847.952298 144.690443 848.378225 144.690443 848.804152 144.690443 849.230079 139.551688 849.656006 139.551688 850.081933 139.490844 850.507860 142.641057 850.933787 147.927349 851.359713 153.216281 851.785640 157.811210 852.211567 157.811210 852.637494 159.539089 853.063421 170.682718 853.489348 180.514458 853.915275 182.154573 854.341202 184.227631 854.767129 184.227631 855.193055 184.227631 855.618982 186.486583 856.044909 188.717095 856.470836 191.156627 856.896763 244.164317 857.322690 405.112028 857.748617 596.459366 858.600471 683.592713 859.452324 702.935461 860.304178 709.706419 861.156032 714.404862 862.007886 714.404862 862.859740 714.404862 863.711593 714.404862 864.563447 714.404862 864.989374 714.404862 865.841228 714.404862 866.693082 714.404862 867.544935 705.015750 868.396789 690.363671 869.248643 671.289212 869.674570 567.451306 870.100497 349.602418 870.526424 207.508624 870.952351 182.000939 871.378277 164.895225 871.804204 148.458410 872.230131 136.824224 872.656058 118.776840 873.081985 106.024071 873.507912 104.115892 873.933839 96.649178 874.359766 96.649178 874.785693 89.276845 875.211620 89.276845 875.637546 96.649178 876.063473 98.094585 876.915327 98.226468 877.341254 98.226468 877.767181 98.226468 878.193108 98.226468 878.619035 98.226468 879.044962 98.226468 879.470888 107.486601 879.896815 117.228304 880.322742 137.767642 880.748669 154.442653 881.174596 163.326745 881.600523 168.565203 882.026450 200.645569 882.452377 305.172921 882.878304 480.818023 883.304231 600.519016 884.156084 640.082739 885.007938 673.898386 885.859792 678.286576 886.711646 687.429687 887.563499 698.901728 888.415353 698.901728 889.267207 698.901728 890.119061 698.901728 890.544988 698.901728 890.970915 698.901728 891.396841 698.901728 891.822768 687.429687 892.674622 678.286576 893.526476 669.252351 893.952403 664.864162 894.378330 646.624259 894.804257 567.596146 895.230184 427.180263 895.656110 288.839552 898.211672 200.179405 898.637599 177.180866 899.063526 170.613346 899.489452 170.613346 899.915379 163.147418 900.341306 163.147418 900.767233 155.711585 901.193160 151.493584 901.619087 147.058219 902.045014 143.732915 902.470941 143.625384 902.896868 138.005221 903.322795 138.005221 903.748721 143.625384 904.174648 143.625384 904.600575 146.901515 905.026502 146.901515 905.452429 149.106049 905.878356 153.373222 906.304283 158.328524 906.730210 165.186609 907.156137 165.186609 907.582063 191.833189 908.007990 273.834941 908.433917 491.040585 908.859844 643.600271 909.711698 675.562882 910.563552 675.562882 911.415406 675.562882 912.267259 675.562882 913.119113 675.562882 913.545040 675.562882 914.396894 675.562882 915.248748 675.562882 915.674674 675.562882 916.526528 675.562882 916.952455 668.302168 917.378382 662.289697 917.804309 653.293052 918.230236 648.395066 918.656163 645.747741 919.082090 640.803375 919.508017 634.304868 919.933943 624.954265 920.359870 570.953383 920.785797 418.832161 921.211724 265.981857 921.637651 238.707021 922.063578 203.551372 922.489505 173.993551 922.915432 155.153866 923.341359 152.429759 923.767285 148.854876 924.193212 140.103478 924.619139 140.103478 925.045066 132.385559 925.470993 132.241883 925.896920 128.961267 926.748774 129.411142 927.174701 132.241883 928.026554 134.762778 928.452481 140.103478 928.878408 140.103478 929.304335 142.932562 929.730262 151.075378 930.156189 151.075378 930.582116 151.075378 931.008043 151.075378 931.433970 151.075378 931.859896 162.606600 932.285823 178.638605 932.711750 214.385753 933.137677 263.532432 933.563604 317.694155 933.989531 436.602978 934.415458 561.664845 934.841385 642.186346 936.119165 683.299123 936.971019 687.912083 937.822873 687.912083 938.674727 687.912083 939.526581 687.912083 940.378434 687.912083 941.230288 687.912083 942.082142 687.912083 942.933996 687.912083 943.785850 687.912083 944.211776 687.912083 944.637703 667.577551 945.063630 646.782165 945.489557 639.692570 945.915484 589.984117 946.341411 470.719464 946.767338 332.382060 947.193265 224.844503 947.619192 178.579298 948.045118 175.919451 948.471045 166.299367 948.896972 154.169991 949.322899 149.761900 949.748826 149.761900 950.174753 149.761900 950.600680 149.761900 951.026607 149.761900 951.452534 145.989644 951.878460 145.989644 952.304387 149.761900 952.730314 154.169991 953.156241 160.888661 953.582168 166.755680 954.008095 166.755680 954.434022 171.942508 954.859949 171.942508 955.285876 175.695573 955.711803 180.460763 956.137729 194.302109 956.563656 204.550944 956.989583 206.878621 957.415510 212.010672 957.841437 216.376855 958.267364 224.943499 958.693291 247.030899 959.119218 327.279032 959.545145 394.719023 959.971071 438.695042 960.396998 543.783826 961.248852 638.534232 962.100706 663.962086 962.952560 663.962086 963.804414 663.962086 964.656267 663.962086 965.508121 666.973874 966.359975 666.973874 967.211829 666.973874 967.637756 666.973874 968.063682 666.973874 968.489609 666.973874 968.915536 659.586154 969.341463 647.254264 969.767390 626.937930 970.193317 614.117527 970.619244 610.044097 971.045171 605.536389 971.471098 533.565364 971.897025 398.439673 972.322951 253.974456 972.748878 166.968423 973.174805 162.232951 973.600732 162.232951 974.026659 162.232951 974.452586 162.232951 974.878513 162.232951 975.304440 151.880576 975.730367 141.607115 976.156293 133.496998 976.582220 133.496998 977.008147 120.142141 977.434074 107.094227 977.860001 107.094227 978.285928 120.142141 978.711855 133.496998 979.137782 146.158779 979.989636 155.853561 980.415562 158.435583 980.841489 159.014262 981.267416 161.779368 981.693343 164.997828 982.119270 168.189651 982.545197 168.189651 982.971124 168.189651 983.397051 168.189651 983.822978 168.189651 984.248904 274.061101 984.674831 466.498407 985.100758 602.838428 985.952612 639.170511 986.804466 662.055723 987.656320 662.055723 988.508173 666.381621 989.360027 666.381621 990.211881 666.381621 990.637808 666.381621 991.489662 666.381621 991.915589 666.381621 992.341515 666.381621 992.767442 653.293084 993.193369 646.319831 993.619296 643.672473 994.045223 641.769698 994.471150 638.900551 994.897077 633.654006 995.323004 629.373808 995.748931 620.833550 996.174858 608.127813 996.600784 594.902010 997.026711 549.175221 997.452638 451.510081 997.878565 303.499042 998.304492 202.516073 998.730419 195.004550 999.156346 187.855421 999.582273 178.010771 1000.008200 167.376240 1000.434126 154.817339 1000.860053 138.355823 1001.285980 138.355823 1001.711907 138.355823 1002.137834 138.355823 1002.563761 138.355823 1002.989688 130.980336 1003.415615 138.355823 1003.841542 154.299296 1004.267468 165.378244 1004.693395 165.378244 1005.119322 167.182745 1005.545249 167.182745 1005.971176 167.182745 1006.397103 169.435991 1006.823030 174.057914 1007.248957 174.057914 1007.674884 181.937254 1008.100811 188.141554 1008.526737 191.661877 1008.952664 203.103473 1009.378591 216.200261 1009.804518 225.348050 1012.786006 444.062143 1013.637860 658.306558 1014.063787 658.703984 1014.915641 658.703984 1015.767495 658.703984 1016.193422 658.703984 1016.619348 658.703984 1017.045275 658.703984 1017.471202 658.703984 1017.897129 658.703984 1018.323056 658.703984 1018.748983 658.703984 1019.174910 642.059406 1019.600837 614.889014 1020.026764 603.277927 1020.452690 603.277920 1020.878617 600.302717 1021.304544 589.345778 1021.730471 561.264476 1022.156398 536.058048 1022.582325 492.151908 1023.008252 384.853257 1023.434179 285.014184 1023.860106 211.199072 1024.286033 160.371729 1024.711959 160.371729 1025.137886 160.371729 1025.563813 160.371729 1025.989740 160.371729 1026.415667 148.660131 1026.841594 148.660131 1027.267521 148.660131 1027.693448 141.369154 1028.119375 136.172125 1028.545301 127.156137 1028.971228 127.156137 1029.397155 127.156137 1029.823082 127.156137 1030.249009 127.156137 1030.674936 127.156137 1031.100863 131.928718 1031.526790 136.172125 1031.952717 136.172125 1032.378644 144.728826 1032.804570 151.252691 1033.230497 151.252691 1033.656424 151.252691 1034.082351 151.252691 1034.508278 151.252691 1034.934205 171.616311 1035.360132 187.701478 1035.786059 281.778770 1036.637912 556.759209 1037.489766 788.494232 1039.193474 832.947058 1040.471255 835.997837 1041.749035 835.997837 1043.026816 835.997837 1046.434231 843.338571 1047.712012 851.381641 1048.563866 855.081815 1049.415719 855.081815 1050.267573 857.144516 1051.545354 857.144516 1052.397208 857.144516 1053.249061 854.301909 1054.100915 852.287875 1055.378696 852.239204 1056.230550 852.210337 1057.508330 851.381496 1058.360184 851.381496 1059.212038 851.381496 1060.063892 851.381496 1060.915745 851.381496 1061.767599 849.046083 1062.619453 849.046083 1063.471307 851.381496 1064.749087 852.210337 1065.600941 851.381496 1066.878722 849.046083 1068.156503 849.046083 1069.008356 847.519625 1069.860210 847.519625 1070.712064 847.519625 1071.563918 847.519625 1072.415772 847.519625 1073.267625 847.519625 1074.119479 849.874839 1074.971333 849.903642 1075.823187 854.285045 1076.675041 849.903642 1077.952821 849.903642 1078.804675 854.285045 1080.082456 854.285045 1081.360236 854.285045 1082.212090 854.285045 1083.489871 849.903642 1096.267678 845.986919 1097.971385 845.986919 1098.823239 845.986919 1100.101020 842.777742 1101.378800 837.540948 1102.230654 833.616031 1103.082508 832.605765 1103.934362 828.654675 1104.786216 823.704206 1105.638069 820.933480 1106.489923 820.690052 1107.341777 820.690052 1108.193631 820.690052 1109.045484 821.815810 1109.897338 821.815810 1110.749192 820.690052 1111.601046 819.229394 1112.452900 820.690052 1113.304753 820.690052 1114.156607 821.815810 1115.008461 822.284767 1115.860315 823.929665 1116.712169 823.929665 1117.564022 825.349104 1118.415876 823.929665 1119.267730 823.929665 1120.119584 823.929665 1120.971438 823.929665 1121.823291 824.775557 1122.675145 824.775557 1123.526999 826.195181 1124.378853 826.195181 1125.230706 824.775557 1126.082560 823.356188 1126.934414 823.356188 1127.786268 825.853906 1128.638122 825.853906 1129.489975 823.356188 1130.341829 825.441558 1131.193683 822.446669 1132.045537 822.446669 1132.897391 822.446669 1133.749244 820.336713 1134.601098 820.336713 1135.452952 821.130456 1136.304806 821.130456 1137.156660 821.130456 1138.008513 822.885868 1138.860367 823.229924 1139.712221 823.874464 1140.564075 823.874464 1141.415928 823.874464 1142.267782 823.874476 1143.119636 825.785614 1143.971490 825.785614 1144.823344 823.874476 1145.675197 825.785614 1146.527051 827.503916 1147.378905 826.608495 1148.230759 831.187357 1149.082613 831.187357 1149.934466 826.608495 1150.786320 826.608495 1151.638174 831.187357 1152.490028 831.187357 1153.341882 831.187357 1154.193735 834.047949 1155.045589 833.004206 1155.897443 830.143646 1156.749297 833.004206 1157.601150 830.143646 1158.453004 830.143646 1159.304858 830.143646 1160.156712 827.796843 1161.008566 826.061986 1161.860419 826.061986 1162.712273 823.858009 1163.564127 823.858009 1164.415981 823.858009 1165.267835 822.733348 1166.119688 822.088734 1166.971542 822.088734 1167.823396 822.088734 1168.675250 822.088734 1169.527103 822.088734 1170.378957 822.733348 1171.230811 822.088734 1172.082665 821.130687 1172.934519 822.088734 1173.786372 822.088734 1174.638226 822.733348 1175.490080 821.649714 1176.341934 821.649714 1177.193788 821.649714 1178.045641 819.854210 1178.897495 818.523267 1179.749349 820.812258 1180.601203 818.523267 1181.453057 817.803582 1182.304910 817.803582 1183.156764 818.523267 1184.008618 819.415240 1184.860472 819.813729 1185.712325 819.279432 1186.564179 819.813729 1187.416033 819.279432 1188.267887 819.813729 1189.119741 821.495600 1189.971594 821.495600 1190.823448 819.813729 1191.675302 819.813729 1192.527156 821.495600 1193.379010 821.495617 1194.230863 821.672338 1195.082717 825.178398 1195.934571 827.691645 1196.786425 830.405428 1197.638279 835.520878 1198.490132 835.520878 1199.341986 835.520878 1200.193840 839.683796 1201.045694 839.683796 1201.897547 839.683796 1202.749401 839.683796 1203.601255 835.520878 1204.453109 835.520878 1205.730890 839.033010 1206.582743 841.009265 1207.434597 839.033006 1208.712378 839.033006 1209.564232 839.033006 1210.416085 831.312806 1211.267939 833.289061 1212.119793 833.289061 1212.971647 833.289061 1213.823500 832.389095 1214.675354 832.389095 1215.527208 826.125038 1216.379062 826.125038 1217.230916 826.125038 1218.082769 826.125038 1218.934623 826.125038 1220.212404 826.125038 1221.490185 826.974008 1222.342038 831.611093 1223.193892 837.582356 1224.045746 831.611093 1224.897600 831.611093 1225.749454 831.611093 1226.601307 831.611093 1227.453161 831.611093 1228.305015 835.298666 1229.156869 835.298666 1230.008722 830.954374 1230.860576 826.974008 1231.712430 825.769129 1232.564284 825.769129 1233.416138 826.061922 1234.267991 830.954374 1235.545772 830.954374 1236.397626 835.298666 1237.249480 836.029755 1238.101333 836.890756 1238.953187 836.029755 1239.805041 836.890756 1241.082822 835.953445 1241.934676 836.890756 1242.786529 836.890756 1243.638383 841.270208 1244.490237 841.270208 1245.768018 836.890756 1246.619871 841.270208 1247.471725 840.483576 1248.749506 840.483576 1249.601360 840.483576 1250.879140 840.483576 1252.156921 835.953445 1253.434702 833.881521 1254.286555 830.402547 1255.138409 830.402547 1257.693971 817.392680 1258.545824 771.873099 1259.397678 722.805324 1260.249532 707.804982 1261.101386 707.804958 1261.953240 702.944652 1262.379166 692.429759 1262.805093 687.322558 1263.231020 685.999281 1263.656947 685.999281 1264.082874 685.223334 1264.508801 685.223334 1264.934728 682.816452 1265.360655 679.407890 1265.786582 676.808548 1266.212508 675.177532 1267.064362 673.246995 1267.490289 671.349867 1268.342143 671.349809 1268.768070 669.252427 1269.193997 667.155033 1269.619924 664.864365 1270.471777 664.864365 1270.897704 660.096365 1271.323631 653.293132 1271.749558 654.256822 1272.175485 649.930863 1272.601412 649.930863 1273.027339 647.808080 1273.453266 647.808080 1273.879193 647.808080 1274.305119 646.648987 1274.731046 640.505596 1275.156973 634.362204 1275.582900 640.505596 1276.008827 646.648987 1276.434754 647.808080 1276.860681 646.648987 1277.286608 640.505596 1278.138462 634.362204"/></g></g><g class="titles"><text class="title plot_title" x="750.0" y="26">Speed</text></g><g class="plot overlay" transform="translate(176, 46)"><g class="series serie-0 color-0"/></g><g class="plot text-overlay" transform="translate(176, 46)"><g class="series serie-0 color-0"/></g><g class="plot tooltip-overlay" transform="translate(176, 46)"><g class="tooltip" style="opacity: 0" transform="translate(0 0)"><rect class="tooltip-box" height="0" rx="0" ry="0" width="0"/><g class="text"/></g></g><g class="legends" transform="translate(10, 56)"><g class="legend reactive activate-serie" id="activate-serie-0"><rect class="color-0 reactive" height="12" width="12" x="0.0" y="1.0"/><text x="17.0" y="11.2">Mediam speed</text></g></g><g class="legends" transform="translate(1490, 56)"/></g></svg>